HIERARCHY
ROOT root
{
	OFFSET	0	13.1	24.9
	CHANNELS 6  Xposition Yposition Zposition Xrotation Yrotation Zrotation
	JOINT spine_1
	{
		OFFSET	0	9.99999	0
		CHANNELS 3  Xrotation Yrotation Zrotation
		JOINT spine_2
		{
			OFFSET	0	112	-10
			CHANNELS 3  Xrotation Yrotation Zrotation
			JOINT spine_3
			{
				OFFSET	0	206.5	19.3
				CHANNELS 3  Xrotation Yrotation Zrotation
				JOINT spine_4
				{
					OFFSET	0	110.4	14.6
					CHANNELS 3  Xrotation Yrotation Zrotation
					JOINT neck_1
					{
						OFFSET	0	71.8	-50.3
						CHANNELS 3  Xrotation Yrotation Zrotation
						JOINT neck_2
						{
							OFFSET	0	86.2	-25.8
							CHANNELS 3  Xrotation Yrotation Zrotation
							JOINT head_ee
							{
								OFFSET	0	179.8	-8.7
								CHANNELS 3  Xrotation Yrotation Zrotation
								End Site
								{
									OFFSET	1	0	0
								}
							}
						}
					}
					JOINT left_clavicle
					{
						OFFSET	-43.2	22.4	-70.8
						CHANNELS 3  Xrotation Yrotation Zrotation
						JOINT left_shoulder
						{
							OFFSET	-93.9	-5.79999	48.7
							CHANNELS 3  Xrotation Yrotation Zrotation
							JOINT left_elbow
							{
								OFFSET	-291.4	-30.8	15.2
								CHANNELS 3  Xrotation Yrotation Zrotation
								JOINT left_lowarm_twist
								{
									OFFSET	-110.7	-3.89999	13.6
									CHANNELS 3  Xrotation Yrotation Zrotation
									JOINT left_hand
									{
										OFFSET	-110.7	-3.89999	13.6
										CHANNELS 3  Xrotation Yrotation Zrotation
										JOINT left_ee
										{
											OFFSET	-80.8	-5.10001	12.1
											CHANNELS 3  Xrotation Yrotation Zrotation
											End Site
											{
												OFFSET	1	0	0
											}
										}
									}
								}
							}
						}
					}
					JOINT right_clavicle
					{
						OFFSET	43.2	22.4	-70.8
						CHANNELS 3  Xrotation Yrotation Zrotation
						JOINT right_shoulder
						{
							OFFSET	93.9	-5.79999	48.7
							CHANNELS 3  Xrotation Yrotation Zrotation
							JOINT right_elbow
							{
								OFFSET	291.4	-30.8	15.2
								CHANNELS 3  Xrotation Yrotation Zrotation
								JOINT right_lowarm_twist
								{
									OFFSET	110.7	-3.89999	13.6
									CHANNELS 3  Xrotation Yrotation Zrotation
									JOINT right_hand
									{
										OFFSET	110.7	-3.89999	13.6
										CHANNELS 3  Xrotation Yrotation Zrotation
										JOINT right_ee
										{
											OFFSET	80.8	-5.10001	12.1
											CHANNELS 3  Xrotation Yrotation Zrotation
											End Site
											{
												OFFSET	1	0	0
											}
										}
									}
								}
							}
						}
					}
				}
			}
		}
	}
	JOINT left_hip
	{
		OFFSET	-82.8	-127.5	0.300001
		CHANNELS 3  Xrotation Yrotation Zrotation
		JOINT left_knee
		{
			OFFSET	-28.2	-396.7	2.2
			CHANNELS 3  Xrotation Yrotation Zrotation
			JOINT left_ankle
			{
				OFFSET	-11.7	-411.3	35.4
				CHANNELS 3  Xrotation Yrotation Zrotation
				JOINT left_toes
				{
					OFFSET	0	-60	-88.6
					CHANNELS 3  Xrotation Yrotation Zrotation
					JOINT left_foot_ee
					{
						OFFSET	-22.5	-16.5	-42.2
						CHANNELS 3  Xrotation Yrotation Zrotation
						End Site
						{
							OFFSET	1	0	0
						}
					}
				}
			}
		}
	}
	JOINT right_hip
	{
		OFFSET	82.8	-127.5	0.300001
		CHANNELS 3  Xrotation Yrotation Zrotation
		JOINT right_knee
		{
			OFFSET	28.2	-396.7	2.2
			CHANNELS 3  Xrotation Yrotation Zrotation
			JOINT right_ankle
			{
				OFFSET	11.7	-411.3	35.4
				CHANNELS 3  Xrotation Yrotation Zrotation
				JOINT right_toes
				{
					OFFSET	0	-60	-88.6
					CHANNELS 3  Xrotation Yrotation Zrotation
					JOINT right_foot_ee
					{
						OFFSET	22.5	-16.5	-42.2
						CHANNELS 3  Xrotation Yrotation Zrotation
						End Site
						{
							OFFSET	1	0	0
						}
					}
				}
			}
		}
	}
}
MOTION
Frames: 10
Frame Time: 0.02
3510.74867004 725.466 -1525.79313093 -2.58019377194 71.2422787656 -0.716442254154 0.709845 0.843308 0.93522 0.709991 0.782092 0.986983 0.723832 0.571527 1.12211 0.722842 0.741563 1.01778 -16.1245 18.0348 2.42886 -17.3697 33.208 9.1307 -0.0 0.0 -0.0 3.36897 23.9558 7.34716 -25.1172 -10.3125 60.8011 1.54578 -37.4399 0.523844 -52.8805 -4.41297 4.82501 -1.64593 -2.97201 -12.4162 -0.0 0.0 -0.0 14.2432 26.8804 -28.4605 -20.6143 42.4631 -57.7086 0.321052 9.03682 -0.0253713 83.5198 4.25017 8.7956 -2.15924 -26.7203 1.43374 0.0 0.0 0.0 14.6024 28.216 -8.79936 -29.4695 0.0640193 4.47248 33.8231 -4.08597 -4.34566 19.9801 -0.0 -0.0 -0.0 0.0 -0.0 -3.79027 -0.0387993 4.25653 -10.4529 -0.287264 -1.57624 38.3455 23.4857 5.36303 -12.1362 0.0 0.0 0.0 0.0 0.0 
3503.34038016 727.967 -1525.66715975 -4.44119494936 74.3866215885 0.992811912958 0.718077 0.8159 0.990807 0.71831 0.751202 1.04071 0.732348 0.530796 1.1686 0.731143 0.708683 1.07012 -17.5333 18.5439 2.88128 -19.0627 34.0735 10.2909 -0.0 0.0 -0.0 3.29526 24.3217 7.25037 -25.9671 -10.3061 60.9067 1.42094 -35.1393 0.44994 -51.7131 -4.27385 4.76949 -1.60277 -2.83983 -12.0595 -0.0 0.0 -0.0 14.4052 26.7411 -28.8593 -20.3737 43.6291 -56.4363 0.316981 8.92408 -0.0247357 83.4207 4.23843 8.79071 -1.91785 -25.7927 0.54728 0.0 0.0 0.0 16.4852 22.9887 -8.20627 -33.6152 -0.111294 5.08435 31.6042 1.1629 -4.0713 21.6411 -0.0 -0.0 -0.0 0.0 -0.0 -4.82831 -0.267859 4.22398 -7.90865 -0.243927 -1.18827 37.3625 24.7863 5.33441 -11.4141 0.0 0.0 0.0 0.0 0.0 
3495.78549481 725.51 -1521.41607066 -4.29281746389 78.0297142033 0.608314651401 0.692045 0.630134 0.903598 0.692317 0.571361 0.941861 0.702015 0.373441 1.03638 0.700911 0.532423 0.964406 -16.8983 19.087 0.494175 -18.6138 36.3599 8.19383 -0.0 0.0 -0.0 3.21661 24.1037 7.14066 -27.4483 -9.72351 61.9447 1.25595 -31.887 0.358812 -50.1522 -4.08964 4.69084 -1.54082 -2.45219 -11.4591 -0.0 0.0 -0.0 14.4963 25.7271 -29.2041 -18.6777 44.2402 -55.9845 0.304396 8.57514 -0.0228213 83.5543 4.25427 8.79729 -1.07532 -19.8404 -1.5924 0.0 0.0 0.0 18.4414 12.3236 -6.13115 -38.256 -0.35956 5.75258 27.2287 4.37699 -3.58696 21.3463 -0.0 -0.0 -0.0 0.0 -0.0 -6.04935 -1.85559 4.41998 -5.87273 -0.196864 -0.879398 37.9892 23.4589 5.32726 -11.0322 0.0 0.0 0.0 0.0 0.0 
3485.59775558 726.311 -1517.91435938 -3.63217940159 82.2526321327 -0.0386114552023 0.797424 0.758133 0.820318 0.797523 0.7044 0.866895 0.808457 0.520548 0.988283 0.807721 0.670091 0.893679 -17.4874 18.9037 0.831306 -19.2458 35.8605 8.63478 -0.0 0.0 -0.0 3.00978 24.4965 6.86636 -28.4776 -8.79035 61.9086 1.24517 -31.6658 0.353134 -48.7325 -3.92399 4.61497 -1.49078 -2.99103 -11.3589 -0.0 0.0 -0.0 14.5899 26.3416 -29.3468 -18.0923 45.445 -55.2668 0.271665 7.66471 -0.0181981 83.253 4.21859 8.7824 -1.51114 -21.0717 0.431455 0.0 0.0 0.0 21.3305 10.9356 -6.56168 -42.0632 -0.60322 6.28467 23.4862 6.70437 -3.15336 20.9209 -0.0 -0.0 -0.0 0.0 -0.0 -7.02187 -1.84015 4.31274 -4.5379 -0.160059 -0.677858 36.7997 23.8195 5.22789 -10.4385 0.0 0.0 0.0 0.0 0.0 
3477.04279135 728.455 -1509.60458294 -15.1129870921 86.728517297 11.5789718819 0.93312 0.499788 0.556073 0.933172 0.463391 0.586748 0.938037 0.340687 0.665534 0.93769 0.441519 0.603379 -18.6964 18.8641 1.62382 -20.6008 35.4373 9.7923 -0.0 0.0 -0.0 1.78103 24.2127 5.19633 -29.8818 -8.56342 65.4411 1.25698 -31.9081 0.359357 -47.8567 -3.82276 4.56614 -1.49069 -2.34605 -11.0679 -0.0 0.0 -0.0 14.7379 25.9561 -29.7465 -16.7537 45.9369 -54.9398 0.263075 7.42508 -0.0170702 83.5787 4.25715 8.79849 -1.20604 -17.2366 0.340797 0.0 0.0 0.0 22.6648 5.81957 -5.25318 -41.2724 -0.549695 6.17547 20.0396 8.68742 -2.73662 18.8898 -0.0 -0.0 -0.0 0.0 -0.0 -7.7365 -2.77457 4.20532 -3.58632 -0.130958 -0.53472 37.9882 24.0367 5.35668 -9.66483 0.0 0.0 0.0 0.0 0.0 
3472.26197486 730.236 -1501.26369177 -51.4578902372 88.8680175377 48.2264588729 1.02465 0.401903 0.518124 1.02472 0.36812 0.542647 1.0283 0.256732 0.603378 1.02796 0.348801 0.555262 -19.5751 18.7793 2.60578 -21.5276 34.8288 10.9527 -0.0 0.0 -0.0 0.965563 24.0971 4.08686 -30.9381 -8.5155 68.1718 1.25262 -31.8188 0.357055 -47.2059 -3.74801 4.52885 -1.47812 -1.81947 -10.7445 -0.0 0.0 -0.0 14.515 25.8051 -29.2384 -15.6307 46.1521 -53.9357 0.307163 8.65193 -0.0232357 83.8658 4.29123 8.81249 -0.887797 -13.8571 -0.135247 0.0 0.0 0.0 23.6844 2.27732 -4.52913 -40.5974 -0.505208 6.0817 18.2026 9.52772 -2.50738 17.4491 -0.0 -0.0 -0.0 0.0 -0.0 -8.24778 -4.34984 3.8802 -2.93381 -0.109629 -0.43685 37.3694 23.0728 5.24747 -9.43312 0.0 0.0 0.0 0.0 0.0 
3459.1553793 731.636 -1490.87132943 -151.210924842 87.9092999152 148.110890402 1.13803 0.282068 0.303601 1.13804 0.262178 0.320935 1.13955 0.196172 0.365038 1.13945 0.25136 0.329475 -20.5742 18.739 3.27322 -22.6262 34.4867 11.9023 -0.0 0.0 -0.0 -0.333945 24.1134 2.33489 -33.0315 -8.24305 71.2042 1.28949 -32.5679 0.376696 -46.4663 -3.66359 4.48544 -1.44448 -1.64625 -10.4368 -0.0 0.0 -0.0 14.3477 25.5893 -28.8705 -13.3778 47.7277 -52.0783 0.3763 10.5594 -0.0347739 84.2174 4.33307 8.82941 -0.6302 -10.4553 -0.298151 0.0 0.0 0.0 27.2793 -1.93069 -3.08084 -37.9707 -0.342736 5.71208 15.2761 11.3253 -2.13349 15.5232 -0.0 -0.0 -0.0 0.0 -0.0 -9.42313 -4.88394 4.18543 -2.14704 -0.0824293 -0.319168 37.9438 21.7641 5.24117 -8.74901 0.0 0.0 0.0 0.0 0.0 
3453.19408559 726.24 -1490.88311036 -154.084217301 87.1356617108 150.809770523 1.17628 -0.0626028 0.299735 1.17633 -0.0815488 0.295144 1.17591 -0.136161 0.274264 1.17581 -0.0911377 0.292326 -20.9184 18.6848 3.93761 -22.9486 34.0868 12.5831 -0.0 0.0 -0.0 -0.58043 23.7551 1.95743 -33.0657 -8.25093 72.3438 1.14567 -29.5754 0.302446 -46.2424 -3.63815 4.47209 -1.36233 -0.202347 -9.22774 -0.0 0.0 -0.0 13.6862 25.5409 -27.3246 -11.395 48.5145 -52.0454 0.528825 14.6798 -0.0681188 84.3273 4.34615 8.83464 -0.487968 -8.85468 -0.529506 0.0 0.0 0.0 28.3183 -3.26637 -2.5587 -32.4751 -0.0586659 4.91734 15.1513 12.5867 -2.12072 14.7706 -0.0 -0.0 -0.0 0.0 -0.0 -9.7961 -4.96594 4.20724 -1.58085 -0.0618559 -0.234712 36.761 20.9194 5.08805 -8.78659 0.0 0.0 0.0 0.0 0.0 
3453.14016362 726.24 -1490.47314416 -155.678905178 86.9602428417 152.406575239 1.17628 -0.0626028 0.299735 1.17633 -0.0815488 0.295144 1.17591 -0.136161 0.274264 1.17581 -0.0911377 0.292326 -20.9184 18.6848 3.93761 -22.9486 34.0868 12.5831 -0.0 0.0 -0.0 -0.58043 23.7551 1.95743 -33.0657 -8.25093 72.3438 1.14567 -29.5754 0.302446 -46.2424 -3.63815 4.47209 -1.36233 -0.202347 -9.22774 -0.0 0.0 -0.0 13.6862 25.5409 -27.3246 -11.395 48.5145 -52.0454 0.528825 14.6798 -0.0681188 84.3273 4.34615 8.83464 -0.487968 -8.85468 -0.529506 0.0 0.0 0.0 28.3183 -3.26637 -2.5587 -32.4751 -0.0586659 4.91734 15.1513 12.5867 -2.12072 14.7706 -0.0 -0.0 -0.0 0.0 -0.0 -9.7961 -4.96594 4.20724 -1.58085 -0.0618559 -0.234712 36.761 20.9194 5.08805 -8.78659 0.0 0.0 0.0 0.0 0.0 
3445.032477 722.783 -1488.07131524 -152.214221786 87.0991142666 149.137816913 1.25582 0.1495 0.262949 1.25585 0.132465 0.271929 1.2565 0.0787772 0.292038 1.2564 0.12391 0.275932 -21.186 18.4755 5.26746 -23.0662 33.0752 13.719 -0.0 0.0 -0.0 -0.712011 23.8537 1.7914 -33.7784 -8.02709 72.8434 1.08146 -28.1782 0.271432 -45.9262 -3.6023 4.45306 -1.39907 -0.167718 -9.46096 -0.0 0.0 -0.0 13.6689 25.8656 -27.2456 -11.1738 48.8576 -50.6294 0.589475 16.2784 -0.084307 83.8408 4.28827 8.81128 0.0109842 -6.93637 -2.96287 0.0 0.0 0.0 29.8306 -4.36714 -2.85147 -32.397 -0.0551836 4.90586 14.3104 11.9542 -2.00774 14.7094 -0.0 -0.0 -0.0 0.0 -0.0 -10.3424 -5.35914 4.37599 -1.84336 -0.0714987 -0.273845 37.2722 20.1265 5.10422 -9.29693 0.0 0.0 0.0 0.0 0.0 
